<svg xmlns="http://www.w3.org/2000/svg" viewBox="0 0 1080 1350" role="img" aria-labelledby="title desc">
  <title id="title">AB-01 steering wheel airbag product render</title>
  <desc id="desc">A black steering wheel with a white deployed airbag on a white ecommerce background.</desc>
  <defs>
    <filter id="shadow" x="-20%" y="-20%" width="140%" height="140%">
      <feDropShadow dx="0" dy="10" stdDeviation="10" flood-color="#000" flood-opacity=".16"/>
    </filter>
    <radialGradient id="rim" cx="45%" cy="38%" r="62%">
      <stop offset="0" stop-color="#292929"/>
      <stop offset=".55" stop-color="#090909"/>
      <stop offset="1" stop-color="#1d1d1d"/>
    </radialGradient>
    <radialGradient id="bag" cx="42%" cy="34%" r="68%">
      <stop offset="0" stop-color="#fff"/>
      <stop offset=".58" stop-color="#f2f2ef"/>
      <stop offset="1" stop-color="#d8d8d4"/>
    </radialGradient>
  </defs>

  <rect width="1080" height="1350" fill="#fff"/>

  <g transform="translate(540 388)" filter="url(#shadow)">
    <circle r="292" fill="none" stroke="url(#rim)" stroke-width="54"/>
    <circle r="261" fill="none" stroke="#111" stroke-width="10" opacity=".78"/>
    <circle r="314" fill="none" stroke="#050505" stroke-width="5" opacity=".35"/>

    <path d="M-245-4h158c22 0 38 17 38 38s-16 38-38 38h-157c-9-24-13-48-13-76Z" fill="#070707"/>
    <path d="M87-4h158c8 27 5 52-3 76H87c-22 0-38-17-38-38S65-4 87-4Z" fill="#070707"/>
    <path d="M-34 107h68v197c-23 5-45 5-68 0Z" fill="#070707"/>

    <path d="M-130-122c55-55 171-58 237 4 59 55 81 151 39 228-42 78-157 111-246 68-92-44-102-219-30-300Z" fill="url(#bag)"/>
    <path d="M-162-22c-8-69 20-136 78-169 64-36 158-22 209 31 50 52 67 131 38 198-36 83-138 121-232 89-55-19-84-67-93-149Z" fill="#fff" opacity=".56"/>
    <path d="M-105-130c24 55 31 116 18 184M77-142c-28 75-18 143 33 204M-141 22c58-24 119-33 186-28M-130 78c52 47 119 72 202 66" fill="none" stroke="#d0d0cc" stroke-width="8" stroke-linecap="round" opacity=".92"/>
    <path d="M-30-166c39 88 43 181 10 278M142-24c-20 62-59 111-119 145" fill="none" stroke="#ececea" stroke-width="7" stroke-linecap="round" opacity=".82"/>
    <path d="M-156-74c-22 68-10 133 35 193M111-111c41 62 48 127 18 195" fill="none" stroke="#c9c9c5" stroke-width="5" stroke-linecap="round" opacity=".72"/>
  </g>

  <text x="540" y="1033" text-anchor="middle" font-family="Arial, Helvetica, sans-serif" font-size="54" letter-spacing="10" fill="#080808">AB-01</text>
  <text x="540" y="1224" text-anchor="middle" font-family="Arial, Helvetica, sans-serif" font-size="64" fill="#080808">+</text>
</svg>
